<?xml version="1.0" encoding="UTF-8" standalone="no"?>
<!-- Created with Inkscape (http://www.inkscape.org/) -->

<svg
  width="1024"
  height="1024"
  viewBox="-8.41699 -9.322 185.17382 205.08663"
  version="1.1"
  id="svg5"
  xml:space="preserve"
  xmlns="http://www.w3.org/2000/svg"
  xmlns:svg="http://www.w3.org/2000/svg"
>
  <defs id="defs2" />
  <g id="layer1" transform="translate(-332.23005,-42.245472)">
    <path
      id="path464"
      style="
        fill: #88c0d0;
        fill-opacity: 1;
        stroke: none;
        stroke-width: 5;
        stroke-linecap: round;
        stroke-linejoin: round;
        stroke-dasharray: none;
        stroke-opacity: 1;
      "
      d="M 335.12679,50.986111 V 172.1961 a 6.7894677,6.7894677 22.5 0 0 11.59035,4.80087 l 23.24102,-23.24102 V 95.703692 l 46.44181,23.220908 46.44178,-23.220908 v 58.052258 l 23.24105,23.24103 a 6.7894689,6.7894689 157.49998 0 0 11.59035,-4.80088 l -4e-5,-122.51731 a 7.4333195,7.4333195 31.717465 0 0 -10.7576,-6.648561 L 416.39997,78.288006 347.05369,43.614879 a 8.2412879,8.2412879 148.28252 0 0 -11.9269,7.371232 z m 81.27319,87.964099 c -3.57522,-6e-5 -7.00406,1.4201 -9.53219,3.94809 l -28.59651,28.59651 19.06434,19.06435 19.06436,-19.06435 19.06434,19.06435 19.06434,-19.06435 -28.59652,-28.59651 c -2.52814,-2.52799 -5.95694,-3.94815 -9.53216,-3.94809 z m -45.27783,39.69373 -36.56366,36.56367 c -4.97425,4.97476 -1.45092,13.48024 5.58409,13.48024 h 152.51478 c 7.035,0 10.55838,-8.50546 5.58411,-13.48024 l -36.56368,-36.56367 -26.21347,26.21349 -19.06434,-19.06435 -19.06436,19.06435 z"
    />
  </g>
</svg>
