<svg xmlns="http://www.w3.org/2000/svg" width="1024" height="1024" viewBox="0 0 185.17382 205.08663">
  <path fill="rgb(151 213 166)" d="M11.31 18.06v121.21a6.79 6.79 0 0 0 11.6 4.8l23.24-23.24V62.78L92.59 86l46.44-23.22v58.05l23.24 23.24a6.79 6.79 0 0 0 11.59-4.8V16.76a7.43 7.43 0 0 0-10.76-6.65L92.6 45.36 23.24 10.7a8.24 8.24 0 0 0-11.93 7.37m81.28 87.97c-3.58 0-7 1.42-9.54 3.94l-28.6 28.6 19.07 19.07 19.07-19.07 19.06 19.07 19.07-19.07-28.6-28.6a13.5 13.5 0 0 0-9.53-3.94M47.3 145.72l-36.56 36.56a7.9 7.9 0 0 0 5.58 13.48h152.51a7.9 7.9 0 0 0 5.59-13.48l-36.57-36.56-26.2 26.21-19.07-19.06-19.07 19.06z" />
</svg>
