<svg xmlns="http://www.w3.org/2000/svg" width="1024" height="1024" viewBox="-8.41699 -9.322 185.17382 205.08663">
  <path fill="rgb(151 213 166)" d="M2.89674 8.740639v121.209989a6.7894677 6.7894677 0 0 0 11.59035 4.80087l23.24102-23.24102V53.45822l46.44181 23.220908L130.6117 53.45822v58.052258l23.24105 23.24103a6.7894689 6.7894689 0 0 0 11.59035-4.80088l-.00004-122.51731a7.4333195 7.4333195 0 0 0-10.7576-6.648561L84.16992 36.042534 14.82364 1.369407a8.2412879 8.2412879 0 0 0-11.9269 7.371232zm81.27319 87.964099c-3.57522-.00006-7.00406 1.4201-9.53219 3.94809l-28.59651 28.59651 19.06434 19.06435 19.06436-19.06435 19.06434 19.06435 19.06434-19.06435-28.59652-28.59651c-2.52814-2.52799-5.95694-3.94815-9.53216-3.94809zm-45.27783 39.69373-36.56366 36.56367c-4.97425 4.97476-1.45092 13.48024 5.58409 13.48024h152.51478c7.035 0 10.55838-8.50546 5.58411-13.48024l-36.56368-36.56367-26.21347 26.21349-19.06434-19.06435-19.06436 19.06435z" />
</svg>